<?xml version="1.0" standalone="no"?><!DOCTYPE svg PUBLIC "-//W3C//DTD SVG 1.1//EN" "http://www.w3.org/Graphics/SVG/1.1/DTD/svg11.dtd"><svg t="1727418862847" class="icon" viewBox="0 0 1025 1024" version="1.1" xmlns="http://www.w3.org/2000/svg" p-id="5469" xmlns:xlink="http://www.w3.org/1999/xlink" width="200.1953125" height="200"><path d="M63.891187 150.370441 960.005813 150.370441l0 84.482248L63.891187 234.852688 63.891187 150.370441 63.891187 150.370441zM63.891187 150.370441" fill="#272636" p-id="5470"></path><path d="M362.635062 65.01419l298.748875 0 0 95.191279L362.635062 160.205469 362.635062 65.01419 362.635062 65.01419zM362.635062 65.01419" fill="#272636" p-id="5471"></path><path d="M148.331435 321.040941l85.35525 0 0 546.938602-85.35525 0L148.331435 321.040941 148.331435 321.040941zM148.331435 321.040941" fill="#272636" p-id="5472"></path><path d="M361.76006 321.830943l85.35725 0 0 546.938602-85.35725 0L361.76006 321.830943 361.76006 321.830943zM361.76006 321.830943" fill="#272636" p-id="5473"></path><path d="M576.068688 321.830943l85.35725 0 0 546.938602-85.35725 0L576.068688 321.830943 576.068688 321.830943zM576.068688 321.830943" fill="#272636" p-id="5474"></path><path d="M788.54431 321.830943l85.35225 0 0 546.938602-85.35225 0L788.54431 321.830943 788.54431 321.830943zM788.54431 321.830943" fill="#272636" p-id="5475"></path><path d="M148.331435 832.92444l725.522126 0 0 83.901246-725.522126 0L148.331435 832.92444 148.331435 832.92444zM148.331435 832.92444" fill="#272636" p-id="5476"></path></svg>