<?xml version="1.0" standalone="no"?><!DOCTYPE svg PUBLIC "-//W3C//DTD SVG 1.1//EN" "http://www.w3.org/Graphics/SVG/1.1/DTD/svg11.dtd"><svg t="1724401973009" class="icon" viewBox="0 0 1024 1024" version="1.1" xmlns="http://www.w3.org/2000/svg" p-id="1091" xmlns:xlink="http://www.w3.org/1999/xlink" width="200" height="200"><path d="M512 512m-512 0a512 512 0 1 0 1024 0 512 512 0 1 0-1024 0Z" fill="#1296db" p-id="1092"></path><path d="M409.6 204.8l-21.248 128H384a51.3536 51.3536 0 0 0-51.2 51.2v256a51.2 51.2 0 0 0 51.2 51.2h4.352l21.248 128h204.8l21.248-128h4.352a51.3536 51.3536 0 0 0 51.2-51.2v-256a51.2 51.2 0 0 0-51.2-51.2h-4.352l-21.248-128h-204.8m-25.6 179.2h256v256h-256z" fill="#FFFFFF" p-id="1093"></path></svg>