<?xml version="1.0" standalone="no"?><!DOCTYPE svg PUBLIC "-//W3C//DTD SVG 1.1//EN" "http://www.w3.org/Graphics/SVG/1.1/DTD/svg11.dtd"><svg t="1724140521132" class="icon" viewBox="0 0 1024 1024" version="1.1" xmlns="http://www.w3.org/2000/svg" p-id="1013" xmlns:xlink="http://www.w3.org/1999/xlink" width="200" height="200"><path d="M512 0c226.2528 0 409.7024 185.2416 409.7024 413.7984 0 118.6816-56.0128 252.0576-128.768 332.4928-43.264 47.8208-122.368 134.1952-237.5168 258.8672a58.5728 58.5728 0 0 1-86.3744-0.4096l-13.824-15.2064a36822.272 36822.272 0 0 0-208.8448-229.4272c-81.2032-87.7056-144.0768-220.2112-144.0768-346.3168C102.2976 185.2416 285.7472 0 512 0z m0 206.8992c-113.152 0-204.8512 92.6208-204.8512 206.8992 0 114.2272 91.648 206.8992 204.8512 206.8992 113.152 0 204.8512-92.6208 204.8512-206.8992S625.152 206.8992 512 206.8992z m0 0" p-id="1014"></path></svg>