<?xml version="1.0" standalone="no"?><!DOCTYPE svg PUBLIC "-//W3C//DTD SVG 1.1//EN" "http://www.w3.org/Graphics/SVG/1.1/DTD/svg11.dtd"><svg t="1723715950362" class="icon" viewBox="0 0 1024 1024" version="1.1" xmlns="http://www.w3.org/2000/svg" p-id="6050" xmlns:xlink="http://www.w3.org/1999/xlink" width="200" height="200"><path d="M512 512m-512 0a512 512 0 1 0 1024 0 512 512 0 1 0-1024 0Z" fill="#F96C17" p-id="6051"></path><path d="M571.317333 789.333333H431.36C322.730667 789.333333 234.666667 701.269333 234.666667 592.650667V431.36C234.666667 322.730667 322.730667 234.666667 431.349333 234.666667h140.032C679.936 234.666667 768 322.730667 768 431.349333v161.365334C768 701.269333 679.936 789.333333 571.317333 789.333333z" fill="#FFFFFF" p-id="6052"></path><path d="M525.973333 338.730667l73.834667 67.914666a30.186667 30.186667 0 0 1 9.781333 22.218667 30.186667 30.186667 0 0 1-9.781333 22.229333l-67.946667 62.485334 67.946667 62.485333a30.186667 30.186667 0 0 1 9.781333 22.229333 30.186667 30.186667 0 0 1-9.781333 22.218667L525.973333 688.426667a29.76 29.76 0 0 1-32.597333 5.44 29.845333 29.845333 0 0 1-18.069333-27.669334l-0.010667-102.645333-53.333333 53.344a16.064 16.064 0 0 1-22.624 0 16.064 16.064 0 0 1 0-22.634667l69.973333-69.984c2.154667-2.165333 4.864-3.648 7.786667-4.32 0.821333-2.24 1.898667-4.394667 3.221333-6.368a29.098667 29.098667 0 0 1-2.954667-5.685333c-3.018667-0.629333-5.824-2.133333-8.042666-4.373333l-69.984-69.973334a16.064 16.064 0 0 1 0-22.645333 16.064 16.064 0 0 1 22.634666 0l53.322667 53.376V360.96c0-12.16 6.933333-22.762667 18.08-27.68a29.792 29.792 0 0 1 32.597333 5.450667z m-20.330666 191.530666l-0.352 0.106667v135.829333l74.186666-67.733333-73.834666-68.202667z m0-169.493333l-0.352 0.128v135.818667l74.186666-67.733334-73.834666-68.202666z" fill="#F7713E" p-id="6053"></path></svg>