<?xml version="1.0" standalone="no"?><!DOCTYPE svg PUBLIC "-//W3C//DTD SVG 1.1//EN" "http://www.w3.org/Graphics/SVG/1.1/DTD/svg11.dtd"><svg t="1727418720013" class="icon" viewBox="0 0 1024 1024" version="1.1" xmlns="http://www.w3.org/2000/svg" p-id="4266" xmlns:xlink="http://www.w3.org/1999/xlink" width="200" height="200"><path d="M862.3 508.4c-16.7-147.5-133.1-264-280.7-280.7v-37.4h-70.7v37.4c-147.5 16.7-264 133.1-280.7 280.7h-37.4v70.7h37.4c16.7 147.5 133.1 264 280.7 280.7v37.4h70.7v-37.4c147.5-16.7 264-133.1 280.7-280.7h37.4v-70.7h-37.4zM581.6 788.5v-68.1h-70.7v68.1c-108.4-15.9-193.6-101-209.5-209.5h68.1v-70.7h-68.1c15.9-108.4 101-193.6 209.5-209.5v68.1h70.7v-68.1C690 314.8 775.2 400 791.1 508.4H723v70.7h68.1C775.2 687.5 690 772.7 581.6 788.5z m0 0" p-id="4267"></path><path d="M510.9 543.7c0 12.6 6.7 24.3 17.7 30.6 10.9 6.3 24.4 6.3 35.3 0 10.9-6.3 17.7-18 17.7-30.6 0-12.6-6.7-24.3-17.7-30.6-10.9-6.3-24.4-6.3-35.3 0-10.9 6.4-17.7 18-17.7 30.6z m0 0" p-id="4268"></path></svg>