<?xml version="1.0" standalone="no"?><!DOCTYPE svg PUBLIC "-//W3C//DTD SVG 1.1//EN" "http://www.w3.org/Graphics/SVG/1.1/DTD/svg11.dtd"><svg t="1727236425534" class="icon" viewBox="0 0 1024 1024" version="1.1" xmlns="http://www.w3.org/2000/svg" p-id="1360" xmlns:xlink="http://www.w3.org/1999/xlink" width="200" height="200"><path d="M518.72 60.8c-249.12 0-451.2 202.08-451.2 451.2s202.08 451.2 451.2 451.2 451.2-202.08 451.2-451.2-202.08-451.2-451.2-451.2z m0 155.04c34.56 0 62.88 27.84 62.88 62.88 0 34.56-27.84 62.88-62.88 62.88-34.56 0-62.88-27.84-62.88-62.88s28.32-62.88 62.88-62.88z m138.24 372.48c0 7.68-6.24 13.44-13.44 13.44H622.4c-7.68 0-13.44-6.24-13.44-13.44v-145.92H593.6v352.32c0 7.68-6.24 13.44-13.44 13.44h-40.8c-7.68 0-13.44-6.24-13.44-13.44v-183.36h-14.88v183.36c0 7.68-6.24 13.44-13.44 13.44h-40.8c-7.68 0-13.44-6.24-13.44-13.44v-352.32h-14.88v145.92c0 7.68-6.24 13.44-13.44 13.44h-21.12c-7.68 0-13.44-6.24-13.44-13.44v-185.76V401.12c0-33.6 26.88-60.48 60.48-60.48h32.64c12.48 0 24.96 8.64 44.64 8.64 19.68 0 34.08-8.64 44.64-8.64H596c33.6 0 60.48 37.44 60.48 70.56V402.08v186.24z" p-id="1361"></path></svg>